<?xml version="1.0" encoding="utf-8"?>
<!-- Generator: Adobe Illustrator 23.1.0, SVG Export Plug-In . SVG Version: 6.00 Build 0)  -->
<svg version="1.1" id="Layer_1" xmlns="http://www.w3.org/2000/svg" xmlns:xlink="http://www.w3.org/1999/xlink" x="0px" y="0px"
	 width="72px" height="71px" viewBox="0 0 72 71" style="enable-background:new 0 0 72 71;" xml:space="preserve">
<style type="text/css">
	.st0{fill:#FFFFFF;}
</style>
<image style="display:none;overflow:visible;" width="976" height="638" xlink:href="5FF6472.jpg"  transform="matrix(1 0 0 1 -474 -303.5)">
</image>
<path class="st0" d="M30.2,48c1.7,1.3,3.8,2.1,5.8,2.1c2.1,0,4.2-0.8,5.4-2.5L59,30.1c0.7-0.7,0.9-2,0.2-2.8c-0.8-1-2.2-1.1-3.1-0.2
	L38.6,44.7c0,0-0.4,0.4-0.8,0.4l0.8-43c0-1.3-1.3-2.1-2.5-2.1C34.8,0,34,0.8,34,2.1l-0.4,42.6L16,27.6c-0.8-0.8-2.1-0.8-2.9,0
	c-0.8,0.8-0.8,2.1,0,2.9L30.2,48z M68.9,57.8c-1.1,0.1-1.9,0.8-1.9,2V67H5l0-7.1c0-1.2-0.9-2.2-2.1-2.1c-1.1,0.1-1.9,0.8-1.9,2v9.1
	C1,70.1,1.9,71,3.1,71h65.8c1.2,0,2.1-0.9,2.1-2.1v-9C71,58.8,70.1,57.8,68.9,57.8z"/>
</svg>
